<?xml version="1.0" standalone="no"?>
<!DOCTYPE svg PUBLIC "-//W3C//DTD SVG 20010904//EN"
 "http://www.w3.org/TR/2001/REC-SVG-20010904/DTD/svg10.dtd">
<svg version="1.0" xmlns="http://www.w3.org/2000/svg"
 width="564.000000pt" height="583.000000pt" viewBox="0 0 564.000000 583.000000"
 preserveAspectRatio="xMidYMid meet">
<metadata>
Created by potrace 1.16, written by Peter Selinger 2001-2019
</metadata>
<g transform="translate(0.000000,583.000000) scale(0.100000,-0.100000)"
fill="#000000" stroke="none">
<path d="M3250 5573 c-19 -2 -224 -19 -455 -39 -870 -72 -1009 -85 -1037 -100
-45 -23 -62 -68 -62 -164 -1 -105 8 -148 39 -195 l25 -36 -164 3 c-197 4 -196
4 -222 -111 -22 -96 -25 -296 -5 -364 20 -70 47 -87 138 -87 l75 0 -7 -32 c-4
-18 -13 -38 -20 -44 -8 -5 -107 -46 -221 -90 -149 -57 -209 -85 -215 -99 -5
-11 -54 -252 -109 -535 -54 -283 -162 -841 -240 -1239 -77 -398 -140 -737
-140 -752 0 -42 30 -66 115 -91 41 -12 73 -23 71 -25 -8 -8 -196 31 -232 48
-34 16 -46 17 -73 8 -27 -10 -35 -8 -52 7 -21 19 -83 24 -100 7 -16 -16 -39
-113 -39 -164 0 -49 20 -75 87 -112 32 -17 84 -23 97 -10 12 13 79 2 125 -19
28 -14 72 -23 120 -26 42 -2 85 -9 95 -14 17 -9 119 -33 246 -58 38 -7 137
-20 275 -35 17 -2 62 -13 100 -24 39 -11 102 -20 140 -21 41 0 80 -7 95 -15
15 -8 53 -14 92 -15 37 0 79 -5 95 -11 15 -7 64 -15 108 -19 89 -9 288 -51
350 -74 22 -8 61 -15 86 -16 26 0 63 -7 83 -15 21 -9 61 -15 89 -14 32 1 75
-7 112 -20 33 -12 76 -21 95 -19 49 3 122 -11 142 -29 10 -9 42 -15 85 -17 37
-2 79 -6 93 -10 14 -3 61 -10 105 -15 94 -11 713 -106 1243 -192 205 -33 381
-57 391 -54 10 3 27 16 39 28 17 18 20 29 14 52 -5 15 -15 32 -23 37 -22 12
-719 173 -949 218 -113 22 -221 47 -240 55 -19 8 -55 14 -80 14 -25 0 -79 8
-120 17 -41 8 -109 21 -150 29 -41 7 -95 21 -119 30 -25 9 -55 14 -67 11 -22
-6 -98 8 -139 25 -55 23 -301 72 -323 65 -23 -8 -283 46 -337 69 -27 12 -53
15 -82 11 -23 -3 -45 -2 -47 3 -9 14 -162 52 -180 45 -9 -3 -33 2 -53 11 -26
13 -51 16 -87 12 -34 -3 -60 0 -76 9 -14 7 -42 13 -62 14 -20 0 -73 11 -118
26 -101 32 -215 54 -272 52 -25 0 -56 5 -69 12 -37 20 -140 40 -175 34 -21 -4
-45 1 -74 16 -33 17 -53 20 -85 16 -31 -5 -45 -3 -55 9 -7 8 -20 15 -29 16 -9
0 4 8 29 16 25 9 82 42 128 75 87 61 102 68 102 43 0 -26 28 -73 47 -79 10 -3
257 -51 548 -106 292 -56 609 -116 705 -134 96 -19 489 -93 872 -166 l698
-133 552 278 c304 153 558 282 563 287 7 6 4 14 -8 22 -10 8 -15 20 -11 30 4
11 1 16 -12 16 -15 0 -15 3 6 25 l23 25 -21 0 c-22 0 -22 1 -6 25 15 23 15 25
0 25 -19 0 -21 11 -4 28 9 9 9 12 -1 12 -9 0 -10 4 -4 12 6 7 10 25 9 41 -1
15 2 27 7 27 5 0 6 7 3 17 -4 10 2 25 15 40 19 19 20 23 6 23 -22 0 -22 16 1
29 11 7 13 10 3 11 -10 0 -11 3 -2 14 9 11 9 15 -1 19 -9 3 -7 9 7 21 l20 15
-20 1 c-17 0 -16 3 10 25 26 21 27 24 10 25 -18 1 -17 3 9 26 21 19 26 28 17
33 -8 5 8 16 44 31 88 36 72 56 -57 75 -24 4 -38 11 -38 20 0 15 -10 19 -42
16 -16 -2 -23 15 -19 42 0 4 -4 7 -10 7 -8 0 -8 5 1 15 10 12 9 15 -4 15 -13
0 -16 5 -11 20 4 12 2 20 -6 20 -9 0 -9 3 0 14 9 11 9 15 -1 19 -10 4 -10 8 2
16 13 9 12 11 -5 11 -19 1 -19 2 4 20 l23 20 -23 0 -24 0 25 20 25 20 -23 0
c-16 0 -21 4 -15 13 9 14 11 77 3 77 -7 0 -5 46 5 88 3 17 16 43 27 57 11 15
17 30 12 34 -5 5 -40 19 -79 31 -38 12 -73 25 -77 29 -4 4 23 27 60 52 68 46
85 74 45 74 -12 0 -25 4 -29 8 -4 4 -2 7 4 7 7 0 12 4 12 10 0 5 -7 6 -17 3
-12 -5 -14 -3 -7 8 12 19 14 119 1 119 -5 0 -3 7 4 17 11 13 11 17 1 21 -10 3
-10 7 0 20 10 12 10 16 1 19 -8 3 -9 12 -4 26 4 12 7 29 6 37 -1 8 3 21 8 28
6 8 5 12 -4 12 -10 0 -10 3 -1 12 7 7 12 19 12 28 0 8 36 39 80 68 44 29 80
60 80 68 0 7 -4 14 -9 14 -5 0 -11 9 -14 21 -5 17 -9 19 -26 10 -27 -15 -31
-14 -25 4 4 10 0 15 -11 15 -14 0 -15 3 -5 15 10 12 10 15 -1 15 -11 0 -11 2
1 10 13 8 12 10 -2 10 -20 0 -24 15 -8 25 16 10 12 25 -7 26 -11 0 -13 3 -5 6
17 7 15 21 -3 25 -13 3 -13 6 -1 31 12 21 12 27 2 27 -7 0 -13 14 -14 33 -7
117 6 143 75 152 70 10 121 24 129 36 10 16 -10 30 -45 31 -22 1 -30 5 -27 14
3 7 -4 16 -15 19 -20 7 -20 7 -2 21 17 12 17 13 1 14 -19 0 -26 20 -8 20 6 0
10 5 10 10 0 6 -7 10 -16 10 -14 0 -14 2 1 16 9 10 13 20 8 23 -13 10 -15 41
-2 41 9 0 9 3 0 14 -9 11 -9 15 1 18 10 4 10 8 -1 22 -12 14 -12 19 -2 26 9 5
10 10 2 14 -7 5 -7 13 -2 24 11 20 24 54 25 65 2 13 30 27 56 27 14 0 36 9 50
20 34 26 21 37 -76 61 -113 28 -110 27 -88 44 18 14 18 15 -6 34 -22 18 -23
23 -12 41 10 17 10 20 -4 20 -10 0 -14 5 -10 15 3 8 1 15 -4 15 -6 0 -8 13 -5
30 3 19 1 30 -6 30 -8 0 -7 6 2 17 8 9 9 14 3 10 -8 -4 -11 15 -9 63 1 39 -3
70 -8 70 -5 0 -4 7 3 15 8 10 32 15 69 16 71 1 106 11 106 29 0 8 -14 17 -31
21 -58 11 -68 18 -54 34 10 12 9 15 -6 15 -14 0 -15 3 -6 12 17 17 15 28 -5
29 -11 0 -13 3 -5 6 18 7 15 23 -5 23 -16 1 -16 2 -3 13 10 7 15 27 14 52 0
22 4 46 9 53 6 8 6 12 -1 12 -15 0 -21 37 -8 50 8 8 7 13 -4 20 -12 8 -10 10
10 10 19 0 22 2 10 10 -20 13 -9 21 39 27 42 6 67 25 56 43 -3 5 -42 10 -88
10 -45 0 -145 4 -222 9 -77 6 -185 12 -240 15 -55 3 -255 15 -445 26 -190 11
-466 27 -615 35 -148 8 -295 16 -325 18 -30 2 -71 2 -90 0z m390 -62 c179 -11
501 -30 717 -42 216 -13 391 -24 389 -26 -8 -8 -1051 -75 -1176 -75 -63 0
-313 9 -555 21 -242 12 -532 25 -643 30 -112 5 -205 11 -208 13 -2 2 70 10
159 17 89 7 333 27 542 46 209 18 396 33 415 34 19 0 181 -8 360 -18z m1500
-100 c0 -5 -33 -12 -72 -16 -40 -4 -122 -13 -183 -20 l-110 -14 115 5 c63 2
147 7 185 10 48 4 67 3 60 -4 -5 -6 -62 -15 -125 -20 l-115 -10 118 2 c64 1
117 -1 117 -5 0 -4 -60 -11 -132 -17 l-133 -10 125 0 c69 0 130 -1 135 -2 20
-5 -71 -19 -130 -20 -33 -1 -80 -5 -105 -10 -33 -6 -8 -8 94 -7 94 1 140 -2
143 -9 2 -7 -39 -14 -124 -21 l-128 -10 122 -1 c67 -1 124 -6 128 -11 8 -14
-16 -19 -190 -32 -88 -6 -165 -15 -172 -18 -6 -3 63 -5 155 -4 154 1 162 0
102 -10 l-65 -12 65 -5 65 -5 -125 -19 c-146 -23 -134 -30 38 -24 110 4 143
-1 87 -15 -11 -3 -4 -5 17 -6 48 -1 58 -18 16 -25 -18 -3 -154 -12 -303 -21
-148 -8 -421 -25 -605 -36 -245 -15 -376 -19 -487 -14 -84 4 -153 10 -153 14
0 5 57 15 128 23 l127 16 -120 -6 c-66 -3 -124 -5 -130 -6 -5 -1 -11 4 -13 9
-2 6 32 18 75 27 l78 17 -82 -5 c-68 -5 -83 -4 -83 8 0 11 27 18 113 27 169
19 211 31 92 25 -55 -3 -126 -7 -157 -10 -53 -5 -58 -4 -58 14 0 17 9 21 73
27 118 11 156 24 57 19 -96 -4 -67 5 83 26 48 7 86 14 84 17 -4 4 -169 -10
-260 -22 -29 -4 -38 -2 -35 7 3 9 67 20 194 35 186 22 162 23 -93 7 -88 -6
-103 -5 -103 8 0 12 26 18 130 28 72 7 130 15 130 18 0 3 -55 2 -122 -1 -102
-5 -119 -4 -107 7 10 10 126 21 429 40 833 53 942 60 1123 75 9 0 17 -3 17 -8z
m-2970 -31 c140 -6 401 -17 580 -25 179 -8 384 -17 455 -20 260 -11 297 -15
288 -33 -15 -32 -14 -205 1 -262 8 -30 13 -56 12 -58 -2 -2 -639 19 -996 33
-80 3 -239 14 -355 25 -115 11 -241 23 -279 27 -48 4 -73 12 -86 25 -50 54
-55 269 -7 300 7 5 39 6 72 3 33 -3 175 -10 315 -15z m-209 -395 c233 -8 710
-24 1059 -35 1073 -34 1444 -50 1456 -63 2 -1 -2 -23 -9 -47 -6 -26 -11 -126
-12 -232 l0 -187 -205 4 c-113 3 -353 9 -535 15 -181 5 -411 12 -510 15 -99 3
-385 14 -635 25 -250 11 -567 24 -705 30 -137 5 -289 13 -337 16 -85 6 -87 6
-100 37 -20 49 -17 306 5 380 l18 57 43 0 c24 0 234 -7 467 -15z m2984 -25
c-90 -32 -89 -36 5 -15 97 21 114 16 35 -10 -77 -25 -70 -33 12 -11 77 21 75
5 -4 -21 -37 -12 -57 -21 -43 -18 88 15 110 17 110 8 0 -5 -30 -19 -67 -31
l-68 -21 50 6 c77 9 88 9 92 -3 2 -7 -18 -17 -49 -24 -82 -19 -88 -29 -15 -23
43 4 67 2 67 -5 0 -9 -155 -71 -183 -73 -7 0 -8 -2 -2 -5 6 -2 50 4 98 15 48
10 87 17 87 15 0 -2 -17 -13 -37 -24 l-38 -21 40 6 c49 8 47 6 -33 -35 -35
-18 -61 -34 -59 -36 2 -3 33 2 68 11 136 32 108 17 -159 -84 -211 -80 -322
-115 -322 -102 0 3 27 17 61 30 33 13 59 25 57 27 -2 2 -32 -5 -66 -15 -38
-12 -64 -15 -68 -9 -7 11 -8 11 31 32 l30 17 -32 -5 c-41 -7 -43 8 -3 24 38
16 51 34 15 20 -37 -14 -45 -13 -45 9 0 12 11 23 32 30 17 6 29 13 26 16 -3 3
-17 1 -32 -4 -24 -10 -26 -8 -26 14 0 14 6 25 13 26 10 0 10 2 0 6 -30 12 -12
42 40 67 28 15 43 24 32 20 -11 -3 -35 -8 -53 -11 -27 -5 -31 -3 -26 11 3 9
14 17 23 17 14 1 14 2 -1 6 -26 7 -22 20 10 31 24 9 25 10 5 11 -25 1 -31 23
-10 38 6 6 89 33 182 62 94 29 175 54 180 56 6 2 35 3 65 3 l55 0 -80 -28z
m175 -495 c-25 -8 -83 -23 -130 -34 -64 -16 -73 -19 -35 -15 131 14 189 16
182 8 -5 -5 -93 -28 -195 -51 -210 -47 -211 -52 -2 -23 146 20 198 24 188 15
-5 -5 -237 -45 -262 -45 -5 0 -7 -2 -4 -5 2 -3 56 2 118 10 190 25 203 16 22
-16 l-107 -18 115 4 c123 4 114 0 -70 -29 l-85 -13 140 5 c77 3 137 1 133 -3
-4 -4 -65 -16 -135 -25 l-128 -18 125 -2 c153 -2 140 -10 -75 -45 -153 -25
-223 -43 -120 -30 180 21 309 34 312 31 2 -2 -30 -11 -72 -21 -42 -9 -75 -19
-72 -21 2 -2 35 0 73 5 37 6 70 8 72 6 2 -1 -50 -15 -115 -31 -117 -27 -183
-50 -113 -39 51 8 212 25 234 25 46 0 -32 -22 -125 -35 -41 -6 -718 -125 -772
-135 -58 -12 -334 -12 -297 0 14 4 44 8 68 9 23 1 42 5 42 10 0 4 -31 6 -70 3
-57 -4 -70 -2 -70 10 0 9 17 18 48 25 l47 10 -48 2 c-56 1 -54 16 3 26 57 10
57 21 -1 17 -43 -4 -49 -2 -49 16 0 16 10 21 58 30 l57 9 -53 2 c-44 1 -53 4
-50 18 2 9 19 21 38 27 l35 10 -38 4 c-32 3 -36 5 -27 22 7 13 27 20 71 25
104 12 122 25 26 19 -83 -6 -89 -5 -85 13 2 12 15 20 43 24 29 4 32 7 13 8
-15 0 -30 6 -33 11 -4 6 16 10 52 11 42 0 52 3 38 9 -11 5 -36 9 -55 9 l-34 1
20 20 c16 16 40 22 115 29 53 4 101 11 108 15 7 4 76 7 154 7 123 -1 150 2
197 20 50 20 508 86 595 87 26 0 23 -2 -15 -13z m-3296 -12 c34 -16 35 -18 30
-57 -19 -120 -19 -121 -42 -124 -35 -5 -26 -22 12 -22 18 0 48 -3 65 -6 20 -4
31 -3 31 5 0 6 -7 11 -16 11 -14 0 -16 9 -10 63 12 102 14 107 50 107 45 0 76
-25 76 -60 0 -36 -32 -60 -78 -60 -20 0 -31 -4 -27 -10 8 -14 78 -13 109 1 27
12 50 57 44 85 -6 30 -52 54 -118 64 -47 6 -16 7 110 4 96 -3 200 -7 230 -9
30 -2 249 -11 485 -20 321 -12 519 -25 780 -52 193 -19 351 -36 353 -38 2 -2
-3 -14 -12 -27 -31 -47 -58 -179 -62 -303 l-4 -120 -38 2 c-238 16 -448 42
-1242 154 -509 72 -926 132 -928 134 -11 11 -21 87 -16 130 6 53 24 145 31
158 8 15 151 7 187 -10z m-278 -197 c-6 -24 -118 -76 -162 -76 -27 0 -27 1 -8
15 25 19 11 19 -27 -1 -17 -8 -42 -14 -57 -12 -25 3 -24 5 23 30 64 35 53 35
-30 2 -36 -15 -69 -24 -72 -20 -3 3 8 11 26 17 18 6 30 13 28 15 -2 2 -23 -3
-47 -11 -24 -8 -46 -12 -49 -9 -3 4 -1 9 4 11 6 2 91 35 190 72 l180 69 3 -41
c2 -22 1 -50 -2 -61z m-321 -111 c39 -8 87 -15 108 -15 21 0 37 -5 37 -12 0
-8 -378 -2192 -426 -2465 -6 -31 -9 -33 -50 -33 -59 0 -141 18 -187 42 -31 16
-38 24 -34 41 3 12 26 130 52 262 25 132 79 411 120 620 41 209 124 639 185
955 107 552 120 620 124 620 0 0 33 -7 71 -15z m950 -100 c242 -34 429 -63
415 -64 -13 -1 -108 6 -210 14 -102 8 -304 24 -450 35 -323 25 -394 31 -398
35 -9 9 147 52 173 48 17 -3 228 -33 470 -68z m636 -130 c750 -57 1392 -107
1426 -110 l63 -7 -17 -31 c-12 -23 -18 -66 -21 -157 -5 -153 16 -289 56 -372
l28 -58 -35 5 c-38 5 -62 7 -731 60 -239 19 -772 62 -1185 95 -412 33 -787 63
-833 67 -72 5 -85 9 -102 31 -84 106 -109 582 -31 582 10 0 632 -47 1382 -105z
m2210 82 c-6 -8 -40 -26 -76 -42 -36 -15 -64 -29 -62 -32 3 -2 33 7 68 21 71
29 69 29 69 17 0 -5 -27 -19 -60 -31 -73 -27 -73 -37 1 -16 51 16 72 14 53 -3
-5 -5 -40 -19 -77 -31 -89 -29 -80 -38 12 -12 60 17 71 18 71 6 0 -8 -21 -24
-47 -35 -92 -38 -91 -37 -48 -34 22 1 55 6 74 10 61 14 30 -15 -57 -52 -45
-20 -81 -37 -79 -39 2 -2 38 8 81 22 56 19 81 23 88 16 8 -8 -1 -17 -33 -30
-24 -10 -51 -22 -59 -25 -16 -7 53 1 83 9 9 3 17 0 17 -6 0 -6 -33 -27 -72
-45 -86 -40 -78 -45 16 -10 61 23 67 24 73 8 4 -9 2 -18 -3 -20 -19 -7 -149
-83 -141 -83 4 0 40 9 79 20 39 11 73 18 75 16 2 -2 -103 -60 -234 -129 -215
-113 -400 -193 -426 -184 -6 2 33 23 86 47 53 24 95 45 93 47 -2 2 -45 -12
-95 -32 -51 -19 -99 -35 -107 -35 -29 0 -12 20 36 45 28 14 50 27 50 30 0 2
-23 -3 -51 -11 -28 -9 -53 -13 -55 -11 -3 2 20 19 50 38 31 18 54 34 52 36 -1
2 -28 -8 -60 -22 -67 -30 -76 -31 -76 -7 0 12 19 27 56 45 60 30 70 46 13 23
-68 -28 -79 -29 -79 -9 0 12 16 28 41 42 49 28 46 37 -4 16 -36 -15 -37 -15
-37 8 0 18 15 30 86 65 48 24 84 45 82 47 -2 3 -39 -9 -82 -25 -42 -17 -79
-30 -82 -30 -11 0 -3 40 9 40 6 1 26 7 42 15 l30 15 -42 -6 c-63 -9 -52 9 22
35 82 29 79 38 -4 12 -44 -14 -61 -16 -61 -7 0 7 3 16 8 20 4 4 7 13 7 19 0 5
19 17 43 25 24 8 41 16 39 18 -2 3 -17 0 -32 -6 -15 -6 -30 -8 -33 -6 -6 7
-13 4 363 141 170 63 312 112 314 109 2 -2 -1 -10 -8 -17z m-333 -47 c-9 -6
-78 -33 -154 -61 -138 -50 -139 -50 -229 -44 -159 11 -151 16 100 60 132 23
249 45 260 47 33 9 41 8 23 -2z m-3321 -437 c8 -28 25 -68 39 -88 23 -35 24
-38 9 -80 -38 -113 -44 -359 -11 -456 14 -41 14 -51 2 -87 -33 -91 -43 -293
-21 -408 6 -28 3 -30 -65 -59 -39 -16 -82 -42 -95 -57 -40 -47 -78 -273 -74
-436 l2 -73 -78 -55 c-42 -30 -78 -54 -80 -52 -2 2 73 440 166 973 93 534 169
977 170 985 1 15 9 -8 36 -107z m3575 -94 c-36 -23 -37 -38 -2 -19 11 6 26 10
33 7 6 -2 -21 -18 -61 -37 -76 -35 -92 -54 -22 -26 61 24 61 18 0 -14 -68 -36
-63 -37 20 -5 35 14 68 25 73 25 20 0 -15 -27 -63 -50 -65 -30 -58 -38 9 -9
80 34 72 15 -10 -26 -86 -42 -111 -62 -54 -42 22 8 54 17 70 21 l30 7 -32 -22
c-18 -11 -33 -22 -33 -24 0 -2 16 1 36 6 57 16 63 3 9 -20 -90 -40 -93 -42
-60 -37 17 3 47 7 68 11 54 9 46 -10 -15 -34 l-53 -20 48 0 c59 -1 55 -10 -24
-52 -32 -18 -58 -34 -55 -36 2 -2 30 8 62 22 114 51 86 18 -76 -89 -330 -217
-411 -268 -415 -264 -3 3 38 42 90 88 52 46 95 85 95 87 0 2 -41 -24 -91 -58
-66 -44 -94 -58 -102 -50 -13 13 -19 8 116 106 59 43 110 82 113 86 4 7 -123
-57 -204 -102 l-33 -19 3 26 c2 21 21 37 95 82 51 30 91 57 89 59 -2 2 -44
-14 -95 -36 -50 -22 -93 -36 -96 -31 -3 5 25 27 62 48 38 22 77 45 88 52 l20
11 -20 -4 c-11 -3 -48 -16 -82 -30 -95 -39 -77 -10 33 52 52 29 93 55 91 57
-2 2 -42 -14 -89 -36 -92 -43 -98 -45 -98 -31 0 5 32 25 71 46 83 44 86 57 4
20 -75 -33 -80 -32 -22 6 57 38 56 49 -2 19 -47 -23 -55 -11 -13 20 33 24 502
277 517 279 6 0 -5 -9 -23 -20z m-3012 -89 c201 -16 426 -34 500 -40 74 -6
383 -31 685 -55 303 -25 705 -57 895 -72 l346 -27 -1 -186 c0 -102 2 -212 5
-245 l5 -60 -80 3 c-44 1 -262 16 -485 32 -223 17 -834 61 -1358 99 -1069 78
-972 63 -991 154 -16 71 -13 247 5 335 9 42 18 80 20 84 8 13 67 10 454 -22z
m3011 -431 c23 -11 39 -22 37 -25 -8 -7 -361 -134 -365 -131 -5 6 261 176 275
177 7 0 31 -9 53 -21z m80 -96 c-5 -10 -64 -42 -130 -72 -67 -30 -120 -55
-118 -57 2 -2 50 12 107 31 57 19 109 35 114 35 6 -1 -19 -17 -56 -36 -38 -19
-68 -36 -68 -39 0 -2 32 7 71 20 60 21 70 22 67 8 -2 -9 -40 -30 -96 -52 -115
-44 -108 -52 11 -12 88 30 88 30 85 8 -2 -17 -22 -30 -93 -59 -101 -42 -99
-47 7 -18 89 24 88 24 88 1 0 -13 -13 -24 -40 -35 -22 -9 -40 -18 -40 -21 0
-2 20 -2 45 2 59 8 60 -11 3 -34 -24 -9 -66 -29 -94 -44 -28 -15 -68 -32 -88
-39 -21 -7 -35 -14 -33 -16 4 -4 218 49 254 63 7 3 13 -2 13 -10 0 -9 -26 -26
-65 -42 -36 -16 -63 -30 -61 -32 3 -4 96 20 132 34 6 2 14 -3 17 -11 9 -23
-97 -76 -433 -219 -336 -142 -332 -141 -343 -138 -5 1 -52 -10 -104 -24 -110
-29 -113 -29 -113 -12 0 7 41 30 90 51 50 21 90 40 88 41 -2 2 -41 -5 -87 -16
-46 -11 -85 -18 -87 -16 -2 2 44 23 102 46 57 24 103 45 101 47 -2 2 -43 -7
-93 -20 -144 -38 -144 -38 -144 -22 0 7 41 32 95 56 52 24 93 45 91 47 -2 2
-47 -7 -100 -20 -127 -33 -130 -13 -6 39 50 20 90 39 90 41 0 2 -8 2 -17 -1
-10 -3 -51 -12 -90 -19 -67 -13 -73 -13 -73 3 0 12 30 29 110 60 61 24 108 45
106 47 -2 2 -49 -8 -104 -22 -120 -30 -112 -29 -112 -6 0 15 16 23 78 40 l77
21 -80 -6 c-101 -7 -90 6 33 36 51 12 91 25 88 27 -2 3 -42 -3 -88 -11 -47 -9
-91 -16 -99 -16 -23 1 30 27 124 61 48 17 86 34 83 36 -2 2 -43 -7 -92 -21
-98 -29 -104 -30 -104 -17 0 4 120 52 268 106 147 54 368 135 492 181 124 45
226 79 228 74 2 -5 -1 -17 -7 -27z m-3121 -33 c213 -16 442 -45 1175 -150 500
-71 910 -130 911 -130 0 0 -5 -24 -13 -52 -19 -71 -12 -418 10 -498 9 -30 15
-55 14 -56 -1 0 -135 23 -297 52 -400 71 -1228 218 -1773 314 -246 44 -452 82
-457 85 -35 22 -50 301 -21 414 l14 54 86 -7 c47 -3 205 -15 351 -26z m1675
-120 c325 -23 603 -44 619 -48 25 -6 19 -10 -63 -40 l-91 -33 -562 81 c-309
44 -565 83 -568 87 -3 3 13 3 35 0 22 -3 306 -24 630 -47z m1580 -359 l30 -7
-39 -17 c-21 -9 -40 -17 -42 -17 -2 0 -135 -54 -296 -121 -679 -280 -680 -281
-691 -270 -8 8 -8 14 0 22 22 22 949 417 978 417 17 0 44 -4 60 -7z m-2870
-190 c495 -77 1091 -170 1325 -206 234 -36 435 -67 447 -70 l22 -5 -19 -43
c-41 -93 -76 -494 -52 -597 6 -24 10 -46 8 -47 -2 -2 -847 157 -1946 367 -201
38 -468 89 -595 113 -282 53 -260 31 -259 262 0 165 14 281 39 342 l15 36 58
-6 c31 -3 462 -69 957 -146z m2857 91 c-14 -19 -50 -40 -116 -66 -53 -22 -94
-41 -92 -43 2 -2 50 14 107 35 57 22 106 37 109 35 13 -12 -50 -44 -179 -93
-78 -29 -141 -55 -141 -57 0 -3 8 -2 18 2 28 11 275 66 279 62 5 -5 -86 -45
-249 -108 -76 -29 -136 -54 -134 -56 2 -2 32 6 68 17 35 11 108 29 161 39 52
11 108 23 122 27 24 6 26 5 17 -12 -6 -12 -55 -35 -136 -63 -69 -25 -124 -46
-122 -48 2 -2 40 5 84 16 44 12 100 21 123 21 68 0 33 -21 -114 -70 -134 -44
-168 -63 -54 -31 36 11 96 23 133 26 64 7 66 7 55 -12 -7 -14 -57 -37 -162
-74 -84 -30 -146 -55 -138 -56 8 -1 77 15 154 36 77 21 141 37 143 36 14 -10
-25 -39 -108 -80 -55 -27 -98 -50 -97 -51 2 -2 53 13 115 33 102 33 141 37
116 14 -14 -14 -1008 -511 -1022 -511 -37 0 2 36 113 104 69 43 125 80 125 82
0 2 -35 -13 -77 -32 -43 -20 -102 -47 -131 -60 l-53 -24 3 26 c3 23 26 38 190
123 271 141 265 142 -35 7 -81 -36 -150 -66 -152 -66 -3 0 -5 8 -5 18 0 13 36
34 140 81 78 35 139 65 137 68 -2 2 -17 -1 -33 -8 -16 -6 -77 -28 -136 -50
l-108 -38 0 23 c0 21 14 28 130 71 72 26 129 49 127 51 -1 2 -56 -13 -121 -32
-65 -20 -120 -33 -123 -30 -17 16 24 40 191 111 102 44 184 81 182 82 -2 2
-85 -26 -185 -63 -100 -37 -184 -64 -188 -61 -13 14 21 36 126 83 61 26 108
50 106 52 -2 2 -49 -12 -105 -32 -110 -39 -120 -41 -120 -25 0 6 54 36 120 66
66 31 118 58 116 60 -2 2 -51 -15 -110 -38 -59 -23 -109 -39 -112 -36 -3 2 -2
16 1 30 6 21 26 33 121 72 63 26 113 49 111 51 -2 2 -50 -12 -107 -31 -57 -19
-105 -33 -107 -32 -15 15 85 62 492 230 518 213 549 226 553 226 2 1 -6 -12
-16 -27z m-4486 -672 c31 -22 44 -38 44 -54 0 -34 -16 -43 -93 -49 l-68 -6 7
37 c11 59 32 94 62 101 2 1 23 -13 48 -29z m104 -30 c5 -10 10 -32 10 -48 0
-29 1 -29 48 -25 121 10 130 13 166 51 31 32 39 35 62 27 15 -6 29 -14 31 -20
6 -19 -64 -55 -148 -76 -46 -12 -95 -28 -108 -36 -32 -21 -144 -14 -168 10
-16 16 -16 17 10 17 31 0 77 39 77 65 0 9 -7 30 -16 46 -15 30 -15 30 5 19 11
-6 25 -19 31 -30z m511 -41 c96 -31 96 -31 63 -68 l-29 -32 -49 36 c-47 33
-116 49 -116 26 0 -5 16 -32 35 -60 l35 -51 -25 -12 c-30 -14 -144 0 -247 28
-64 18 -62 27 10 38 51 8 122 42 176 85 46 37 62 38 147 10z m331 -66 c54 -17
57 -20 63 -55 9 -51 -2 -96 -28 -109 -40 -22 -199 7 -250 46 -18 13 -16 16 21
50 55 49 104 83 122 84 8 1 41 -7 72 -16z m503 -103 c3 -5 2 -10 -4 -10 -5 0
-20 -20 -34 -44 l-25 -45 25 10 c13 5 51 9 84 9 33 0 73 7 88 15 40 20 107 30
115 16 4 -7 -1 -11 -13 -11 -51 0 -70 -33 -27 -49 24 -10 86 -81 86 -100 0
-19 -14 -12 -60 29 -73 66 -101 75 -195 62 -45 -7 -97 -12 -117 -12 l-35 0 23
47 c13 25 24 52 24 59 0 25 53 44 65 24z m428 -96 c106 -23 103 -21 81 -46
-26 -29 -130 -77 -154 -71 -11 3 -31 24 -44 47 -14 24 -33 49 -42 57 -16 13
-14 15 17 20 56 10 67 10 142 -7z m395 -64 c28 -7 52 -16 52 -20 0 -13 -67
-60 -117 -82 -36 -16 -59 -19 -101 -15 -30 3 -60 11 -65 16 -21 21 121 123
161 116 9 -2 41 -9 70 -15z m1170 -240 c191 -39 446 -92 567 -118 204 -44 220
-49 223 -70 2 -13 -3 -25 -13 -28 -20 -8 -129 8 -380 57 -110 21 -335 59 -500
84 -165 25 -311 48 -324 51 -23 5 -23 6 20 50 24 24 47 44 51 44 5 0 165 -32
356 -70z"/>
<path d="M2105 5313 c-61 -7 -73 -13 -85 -42 -15 -38 0 -67 40 -76 39 -8 63
-41 49 -67 -18 -33 -74 -20 -91 21 l-11 26 -8 -35 c-4 -19 -6 -37 -3 -39 2 -2
31 -6 63 -8 50 -4 63 -1 80 16 21 21 27 65 13 88 -4 6 -29 21 -55 32 -47 20
-61 44 -31 55 31 12 55 6 64 -16 10 -26 10 -26 16 20 2 17 0 31 -4 31 -4 -1
-20 -4 -37 -6z"/>
<path d="M2180 5261 c0 -47 6 -52 20 -16 10 25 25 30 54 19 13 -5 16 -22 16
-79 0 -68 -2 -74 -22 -81 -22 -7 -22 -7 -3 -15 24 -9 95 -11 95 -3 0 4 -7 12
-15 18 -12 9 -13 26 -8 84 6 71 7 73 32 70 14 -2 30 -13 37 -25 6 -13 14 -20
17 -16 11 10 8 71 -3 78 -5 3 -10 1 -10 -6 0 -9 -23 -10 -87 -6 -49 3 -96 9
-105 12 -15 6 -18 1 -18 -34z"/>
<path d="M2494 5276 c-89 -39 -100 -152 -19 -191 97 -45 225 15 225 106 0 75
-117 123 -206 85z m127 -39 c43 -28 50 -71 19 -110 -17 -22 -30 -27 -64 -27
-87 0 -126 28 -126 89 0 66 101 95 171 48z"/>
<path d="M2737 5270 c20 -8 21 -13 16 -92 -4 -53 -11 -89 -21 -100 -14 -17
-12 -18 33 -18 42 0 46 2 31 13 -14 10 -16 26 -14 89 l3 77 80 -95 c44 -52 83
-94 86 -94 13 0 19 33 19 111 0 72 2 79 20 79 11 0 20 7 20 15 0 12 -13 15
-61 15 -37 0 -58 -4 -54 -10 3 -5 14 -10 25 -10 23 0 27 -14 20 -73 l-5 -48
-63 76 c-62 74 -63 75 -110 74 -37 0 -42 -2 -25 -9z"/>
<path d="M3125 5261 c-51 -4 -82 -9 -72 -13 14 -6 17 -21 17 -98 0 -73 -3 -90
-15 -90 -8 0 -15 -4 -15 -10 0 -5 24 -10 54 -10 30 0 58 -5 62 -11 9 -15 24 9
24 39 0 25 -15 30 -24 7 -3 -8 -15 -15 -26 -15 -16 0 -20 6 -20 35 0 39 7 43
25 18 11 -14 13 -11 19 21 8 44 1 57 -18 31 -17 -24 -24 -9 -19 38 5 36 7 37
44 37 33 0 41 -4 49 -25 14 -36 20 -31 20 15 0 22 -3 39 -7 38 -5 -1 -48 -4
-98 -7z"/>
<path d="M1995 4880 c-3 -5 -27 -10 -53 -10 -106 0 -161 -90 -116 -186 28 -58
85 -76 167 -53 56 15 46 30 -16 23 -48 -6 -56 -4 -75 16 -26 28 -37 95 -23
132 12 32 39 48 81 48 26 0 31 -4 37 -30 9 -47 23 -35 23 20 0 47 -11 63 -25
40z"/>
<path d="M2070 4864 c0 -4 7 -12 15 -18 21 -15 10 -206 -12 -206 -8 0 -11 -4
-8 -10 8 -12 105 -13 105 -1 0 5 -7 11 -15 15 -10 4 -15 20 -15 51 l0 45 60 0
60 0 0 -51 c0 -42 -3 -52 -20 -56 -49 -13 -11 -22 90 -22 87 1 110 4 110 15 0
8 -7 14 -15 14 -18 0 -18 1 -5 35 9 23 15 26 52 23 35 -3 43 -7 51 -31 7 -23
6 -31 -9 -42 -17 -13 -13 -14 39 -15 59 0 67 5 43 24 -13 10 -66 157 -66 182
0 7 10 15 23 18 21 7 21 7 2 15 -31 12 -132 13 -140 1 -3 -6 3 -10 15 -10 28
0 24 -21 -28 -127 -36 -75 -38 -78 -72 -78 l-35 0 -3 98 c-3 92 -1 99 18 104
34 9 23 21 -26 29 -30 4 -50 2 -57 -5 -9 -9 -6 -13 11 -17 17 -5 22 -14 22
-40 0 -33 -2 -34 -37 -34 -68 0 -85 9 -78 39 3 14 13 31 21 37 24 19 16 24
-41 24 -30 0 -55 -3 -55 -6z"/>
<path d="M2680 4840 c0 -5 9 -10 20 -10 24 0 24 6 -4 -110 -17 -68 -28 -96
-40 -98 -36 -7 -13 -22 34 -22 28 0 50 5 50 10 0 6 -9 10 -21 10 -15 0 -19 5
-15 18 3 9 13 48 22 85 l17 68 16 -28 c10 -15 35 -61 56 -100 22 -40 45 -73
53 -73 7 0 35 46 62 102 l48 103 6 -45 c15 -129 15 -132 -5 -137 -35 -10 -20
-23 26 -23 25 0 45 5 45 10 0 6 -6 10 -14 10 -9 0 -16 18 -20 58 -4 31 -9 78
-12 105 -6 46 -5 47 21 47 15 0 24 4 20 10 -3 6 -33 10 -66 10 -33 0 -59 -4
-59 -10 0 -5 9 -10 20 -10 19 0 17 -7 -21 -82 l-41 -81 -44 79 c-49 89 -50 94
-28 94 8 0 12 5 9 10 -3 6 -35 10 -71 10 -36 0 -64 -4 -64 -10z"/>
<path d="M3080 4831 c0 -6 11 -11 25 -11 14 0 28 -6 31 -13 2 -7 1 -55 -3
-107 -8 -89 -9 -94 -33 -100 -20 -5 -16 -8 24 -13 88 -12 141 -9 159 11 19 21
22 64 7 93 -8 14 -7 25 5 41 21 31 19 51 -9 77 -19 18 -39 23 -115 28 -65 4
-91 3 -91 -6z"/>
<path d="M3520 4833 c0 -5 -43 -6 -95 -5 -58 3 -95 0 -95 -6 0 -5 10 -12 22
-15 20 -6 21 -9 14 -103 -5 -75 -11 -100 -24 -110 -15 -12 -8 -13 44 -14 33 0
65 -5 72 -12 15 -15 19 -10 25 29 6 37 -8 54 -18 23 -4 -13 -15 -20 -31 -20
-21 0 -24 4 -24 40 0 29 4 40 15 40 8 0 15 -9 15 -20 0 -11 5 -20 10 -20 6 0
10 20 10 45 0 25 -4 45 -10 45 -5 0 -10 -7 -10 -15 0 -8 -4 -15 -10 -15 -5 0
-10 23 -10 50 l0 50 50 0 c45 0 50 -3 56 -25 10 -40 24 -29 24 20 0 33 -4 45
-15 45 -8 0 -15 -3 -15 -7z"/>
<path d="M3570 4818 c0 -6 10 -12 21 -15 19 -5 21 -11 15 -51 -3 -25 -6 -69
-6 -98 0 -47 -3 -54 -19 -54 -19 0 -41 -19 -24 -21 4 0 36 -2 71 -5 60 -5 87
7 41 19 -19 5 -21 11 -16 44 4 21 7 66 7 101 0 59 1 62 25 62 88 0 118 -86 43
-123 -41 -20 -47 -37 -23 -57 8 -7 14 -20 13 -29 -2 -13 7 -17 46 -19 65 -4
78 11 30 34 -48 24 -53 39 -16 58 58 30 67 113 14 140 -32 16 -222 28 -222 14z"/>
<path d="M2112 4416 c16 -12 17 -21 6 -96 -9 -68 -15 -83 -32 -90 -18 -6 -15
-9 19 -14 22 -4 48 -9 58 -11 20 -4 22 4 3 19 -11 9 -12 26 -3 94 11 89 17 95
72 70 54 -24 38 -89 -26 -103 -33 -7 -36 -17 -14 -35 9 -7 13 -21 10 -30 -5
-14 3 -19 41 -25 25 -3 48 -4 51 -1 3 3 -9 17 -26 31 -33 29 -40 45 -17 45 17
0 66 56 66 75 0 8 -10 25 -22 39 -18 21 -38 28 -93 36 -38 5 -79 10 -90 9 -19
0 -19 0 -3 -13z"/>
<path d="M2537 4342 c-31 -34 -22 -68 26 -94 32 -18 42 -29 42 -48 0 -21 -5
-26 -32 -28 -28 -3 -36 2 -53 30 -11 18 -20 31 -21 28 -13 -66 -13 -66 45 -80
48 -11 58 -11 79 3 51 33 39 105 -21 128 -42 16 -54 29 -41 45 18 22 60 17 66
-6 6 -23 23 -27 23 -6 0 8 3 21 6 30 10 25 -97 23 -119 -2z"/>
<path d="M2714 4296 c-28 -28 -34 -42 -34 -75 0 -66 48 -101 137 -101 52 0 94
21 117 60 47 80 -13 150 -129 150 -51 0 -60 -3 -91 -34z m127 3 c63 -21 88
-78 54 -126 -19 -28 -57 -36 -106 -23 -53 15 -79 42 -79 83 0 62 57 90 131 66z"/>
<path d="M2994 4295 c18 -14 19 -19 7 -100 -10 -62 -17 -85 -28 -85 -8 0 -12
-4 -9 -9 7 -11 86 -19 86 -9 0 5 -7 8 -16 8 -14 0 -15 10 -9 78 7 73 11 91 18
81 2 -2 32 -46 67 -96 35 -51 69 -93 76 -93 6 0 14 20 18 45 3 25 9 65 12 90
5 35 10 45 25 45 21 0 26 18 7 24 -34 11 -98 13 -98 4 0 -5 9 -12 20 -15 16
-4 20 -14 20 -47 0 -74 -13 -73 -68 7 -51 74 -70 87 -122 87 -24 -1 -24 -1 -6
-15z"/>
<path d="M3290 4262 c0 -6 7 -13 16 -16 12 -5 14 -15 10 -44 -3 -20 -8 -58
-12 -84 -4 -31 -11 -48 -20 -48 -8 0 -14 -4 -14 -9 0 -5 25 -13 55 -16 30 -4
55 -11 55 -16 0 -24 18 -5 23 24 6 39 1 46 -17 22 -19 -27 -46 -12 -46 25 0
20 5 30 15 30 8 0 15 -7 15 -16 0 -26 17 -6 22 26 5 33 -6 50 -16 24 -11 -28
-25 -4 -19 34 3 20 7 38 8 40 1 1 21 0 44 -4 30 -5 41 -11 41 -25 0 -10 5 -21
10 -24 6 -3 10 5 10 19 0 13 2 31 5 38 4 11 -6 14 -42 14 -26 0 -69 4 -95 8
-29 4 -48 3 -48 -2z"/>
<path d="M3495 4240 c-3 -4 2 -11 11 -14 14 -5 15 -17 10 -74 -9 -89 -14 -102
-37 -102 -10 0 -19 -4 -19 -9 0 -10 49 -21 94 -21 27 1 29 2 12 11 -15 10 -17
19 -12 68 12 100 16 111 40 111 36 0 66 -28 66 -61 0 -25 -6 -32 -37 -46 -49
-20 -48 -18 -30 -44 9 -11 13 -28 10 -35 -3 -10 2 -14 18 -14 13 0 34 -3 47
-6 16 -5 22 -2 22 10 0 9 -6 16 -13 16 -14 0 -47 31 -47 43 0 4 7 7 15 7 27 0
65 47 65 80 0 37 -46 70 -100 70 -19 0 -52 4 -73 9 -20 5 -39 5 -42 1z"/>
<path d="M1024 3072 c-37 -25 -46 -110 -14 -142 53 -53 107 -3 101 93 -2 38
-57 69 -87 49z"/>
<path d="M915 2570 c0 -28 -5 -54 -10 -58 -6 -4 -11 -29 -11 -57 l-1 -50 50
-2 c28 -1 53 -7 57 -13 4 -7 10 1 13 19 4 19 13 31 22 31 9 0 13 4 10 10 -9
14 -95 8 -95 -6 0 -7 -8 -10 -20 -7 -23 6 -26 26 -6 46 11 11 12 17 3 27 -10
10 -2 11 37 6 28 -3 53 -11 57 -17 3 -6 9 3 12 20 4 19 13 31 22 31 9 0 13 4
10 10 -9 14 -95 8 -95 -6 0 -7 -8 -10 -20 -7 -24 6 -26 26 -5 46 16 16 10 27
-14 27 -13 0 -16 -11 -16 -50z"/>
<path d="M898 2379 c-8 -5 -19 -26 -22 -46 -4 -21 -10 -46 -13 -57 -3 -12 -1
-16 7 -11 6 4 32 4 56 0 39 -5 45 -9 42 -28 -3 -20 -8 -22 -53 -18 -27 2 -58
7 -67 12 -15 8 -18 5 -18 -18 0 -19 3 -24 9 -15 5 8 17 11 33 7 20 -5 24 -11
20 -36 -4 -26 -32 -43 -32 -19 0 6 -4 10 -10 10 -5 0 -10 -10 -10 -23 0 -19 6
-23 36 -25 20 -2 45 -7 54 -12 20 -11 30 -4 30 19 0 10 -10 17 -26 17 -33 2
-36 7 -28 38 5 22 10 25 28 20 11 -4 24 -11 27 -17 7 -9 12 8 24 83 l6 35 -41
2 c-61 2 -73 9 -60 33 15 28 48 26 56 -4 5 -21 9 -24 30 -16 17 7 24 6 25 -3
1 -14 17 22 18 41 1 10 -6 9 -28 -2 -27 -14 -29 -14 -34 3 -6 25 -38 42 -59
30z"/>
<path d="M1847 3806 c-50 -18 -67 -34 -88 -81 -26 -57 -25 -134 4 -176 26 -39
108 -77 188 -86 46 -5 49 -5 50 18 4 79 10 94 36 94 34 0 22 23 -14 29 -68 11
-113 7 -113 -9 0 -8 8 -15 18 -15 26 0 42 -20 42 -52 0 -34 -25 -37 -87 -9
-72 33 -93 110 -52 196 37 79 71 90 156 51 41 -19 52 -30 58 -55 4 -17 13 -31
21 -31 10 0 14 14 14 55 0 50 -2 55 -22 54 -13 0 -41 6 -63 15 -49 19 -98 19
-148 2z"/>
<path d="M2205 3774 c-73 -40 -105 -89 -105 -161 0 -53 24 -102 63 -128 39
-25 141 -38 204 -25 88 19 162 102 163 184 0 39 -34 90 -78 118 -49 30 -200
37 -247 12z m192 -51 c74 -37 90 -119 37 -183 -46 -54 -136 -60 -224 -15 -89
46 -94 165 -8 209 42 22 142 16 195 -11z"/>
<path d="M2552 3768 c3 -7 20 -15 39 -18 l34 -5 0 -65 c-2 -208 -10 -238 -60
-226 -18 5 -25 2 -25 -7 0 -11 23 -16 88 -21 48 -4 104 -10 124 -13 32 -5 41
-1 68 25 34 35 40 83 14 120 -14 21 -14 25 -1 40 47 52 40 120 -15 148 -22 12
-183 32 -261 34 -5 0 -7 -6 -5 -12z"/>
<path d="M2902 3739 c2 -7 15 -16 29 -19 24 -6 24 -7 20 -107 -5 -147 -10
-165 -49 -175 -18 -5 -32 -12 -32 -17 0 -10 60 -21 121 -21 26 0 61 -3 79 -6
29 -6 31 -10 26 -35 -3 -19 -1 -29 10 -33 17 -7 20 1 28 69 3 28 8 60 12 73 9
31 -19 29 -34 -3 -12 -25 -51 -41 -76 -32 -15 6 -13 100 3 222 6 45 9 50 34
53 15 2 27 9 27 18 0 10 -14 14 -54 14 -29 0 -75 3 -101 7 -38 5 -47 3 -43 -8z"/>
<path d="M3200 3716 c0 -8 12 -17 26 -20 l27 -7 -7 -112 c-9 -144 -13 -164
-37 -170 -29 -8 -23 -27 9 -27 64 -1 138 -13 153 -26 22 -20 29 -8 29 48 0 50
-12 62 -30 28 -7 -13 -21 -20 -40 -20 -29 0 -30 1 -30 50 0 43 3 50 20 50 15
0 20 -7 20 -26 0 -16 5 -24 13 -22 12 5 30 106 21 120 -10 15 -24 8 -24 -12 0
-13 -7 -20 -20 -20 -22 0 -24 10 -14 84 l7 46 61 0 c66 0 86 -11 86 -46 0 -28
16 -40 24 -18 3 9 6 38 6 65 0 36 -4 49 -14 49 -8 0 -18 -5 -21 -10 -6 -10
-130 -7 -227 6 -28 3 -38 1 -38 -10z"/>
<path d="M3520 3635 c0 -70 11 -84 27 -32 9 31 10 32 59 29 27 -2 51 -5 53 -7
2 -2 -1 -55 -5 -117 l-9 -113 -32 -10 c-38 -11 -42 -23 -10 -29 36 -8 156 -14
161 -9 10 10 -7 33 -25 33 -22 0 -23 19 -12 158 l6 82 33 0 c50 0 63 -9 70
-46 10 -56 29 -34 32 39 3 70 -1 77 -27 53 -13 -12 -38 -13 -141 -5 -78 6
-132 15 -147 24 -12 8 -25 15 -28 15 -3 0 -5 -29 -5 -65z"/>
<path d="M2065 3186 c-17 -7 -45 -30 -63 -50 -27 -31 -32 -45 -32 -87 0 -101
53 -143 182 -143 86 -1 107 9 162 78 82 101 -3 216 -159 215 -33 0 -74 -6 -90
-13z m149 -40 c45 -19 76 -61 76 -103 0 -27 -8 -43 -35 -70 -34 -34 -38 -35
-93 -31 -77 6 -131 33 -148 75 -22 52 1 113 51 134 32 13 113 10 149 -5z"/>
<path d="M2380 3174 c0 -8 9 -14 21 -14 20 0 20 -3 14 -102 -8 -141 -10 -148
-40 -148 -14 0 -25 -4 -25 -9 0 -10 59 -21 118 -21 44 0 57 14 20 23 -20 6
-21 10 -15 89 4 46 7 100 7 122 l0 39 47 -6 c52 -6 93 -41 93 -78 0 -26 -53
-79 -79 -79 -30 0 -35 -18 -14 -48 10 -15 18 -36 18 -47 0 -18 8 -20 63 -23
51 -2 62 0 62 13 0 8 -6 15 -14 15 -17 0 -76 48 -76 61 0 5 7 9 15 9 25 0 82
58 88 90 16 78 -46 115 -200 123 -84 4 -103 3 -103 -9z"/>
<path d="M2730 3151 c0 -6 11 -13 25 -17 28 -7 30 -22 18 -159 -6 -74 -8 -78
-35 -89 -15 -6 -28 -13 -28 -17 0 -4 42 -10 94 -14 195 -15 301 49 280 168
-14 83 -86 120 -261 132 -65 5 -93 4 -93 -4z m183 -32 c21 -5 52 -23 70 -39
27 -24 32 -35 31 -74 -2 -85 -54 -126 -160 -126 l-57 0 7 92 c3 50 6 106 6
125 0 31 2 33 33 33 17 0 49 -5 70 -11z"/>
<path d="M3364 3129 c-5 -9 -40 -10 -120 -6 -111 6 -144 -2 -91 -22 22 -8 22
-12 16 -92 -4 -46 -8 -101 -8 -121 -1 -32 -5 -38 -22 -38 -12 0 -19 -5 -17
-12 3 -9 30 -14 77 -16 52 -2 74 -7 78 -17 10 -26 20 -16 27 27 8 48 -6 71
-23 39 -11 -20 -55 -30 -64 -13 -2 4 -2 24 0 45 6 40 29 52 35 17 6 -41 23
-19 26 35 3 53 -10 76 -21 35 -11 -43 -27 -19 -27 40 l0 60 53 0 c61 0 74 -7
78 -40 7 -44 24 -22 27 35 3 52 -7 70 -24 44z"/>
<path d="M3420 3099 c0 -6 9 -13 21 -16 20 -6 20 -10 14 -117 -8 -115 -15
-136 -46 -136 -11 0 -19 -4 -19 -9 0 -11 149 -26 158 -16 4 4 3 9 -3 12 -34
12 -35 18 -28 134 8 110 9 114 32 117 58 9 111 -28 111 -76 0 -33 -21 -55 -73
-77 -20 -8 -37 -18 -37 -21 0 -3 9 -19 20 -34 11 -16 18 -35 14 -43 -6 -17 23
-27 83 -27 52 0 63 14 26 34 -15 8 -39 25 -51 39 l-24 25 24 7 c37 11 77 55
84 92 8 42 -15 80 -59 98 -44 17 -247 29 -247 14z"/>
<path d="M1720 2667 c0 -8 9 -17 20 -20 23 -6 24 -19 10 -120 -17 -118 -17
-117 -50 -117 -33 0 -41 -16 -12 -23 9 -3 40 -8 67 -12 28 -3 60 -9 73 -12 16
-4 22 -1 22 11 0 9 -8 16 -19 16 -11 0 -22 3 -24 8 -6 10 26 219 35 227 4 4
28 4 54 0 60 -9 94 -41 94 -89 0 -45 -32 -68 -97 -71 -61 -2 -67 -22 -10 -30
149 -23 238 115 123 190 -14 9 -71 22 -128 30 -57 7 -115 16 -130 20 -21 5
-28 4 -28 -8z"/>
<path d="M2100 2620 c0 -6 9 -14 20 -17 11 -3 20 -12 20 -19 0 -26 -30 -216
-36 -225 -3 -5 -16 -9 -30 -9 -51 0 -20 -17 52 -28 84 -13 112 -7 69 15 -20
11 -26 20 -21 36 3 11 11 63 17 114 12 93 12 93 41 93 36 0 83 -24 92 -45 16
-42 6 -75 -26 -95 -18 -11 -41 -20 -51 -20 -23 0 -33 -26 -16 -46 7 -9 13 -28
14 -42 0 -25 4 -28 58 -36 74 -11 93 3 43 32 -19 11 -39 30 -45 41 -10 18 -8
22 22 35 60 25 91 87 71 140 -11 29 -69 54 -149 65 -44 5 -95 13 -112 17 -23
4 -33 3 -33 -6z"/>
<path d="M2465 2582 c-11 -11 -4 -20 21 -26 21 -6 25 -11 21 -29 -3 -12 -11
-65 -18 -117 -13 -98 -18 -110 -56 -110 -13 0 -23 -4 -23 -9 0 -11 29 -18 113
-27 45 -5 67 -3 67 4 0 6 -9 14 -20 17 -23 7 -25 28 -10 125 21 135 19 130 45
130 39 0 29 18 -12 25 -21 3 -57 9 -80 14 -24 4 -45 6 -48 3z"/>
<path d="M2680 2531 c0 -6 9 -11 19 -11 11 0 22 -3 24 -7 5 -8 -28 -215 -37
-240 -3 -7 -12 -13 -21 -13 -30 0 -14 -18 23 -24 54 -9 82 -7 82 4 0 6 -6 10
-14 10 -8 0 -17 4 -20 9 -8 12 15 211 23 211 3 0 44 -57 91 -126 93 -137 106
-152 120 -138 6 6 17 62 27 126 16 113 17 117 42 120 15 2 26 9 26 18 0 17
-142 43 -152 27 -6 -10 15 -27 33 -27 26 0 31 -25 21 -92 -6 -38 -13 -68 -16
-68 -3 1 -37 48 -76 106 -38 58 -72 107 -76 109 -3 3 -32 7 -63 11 -39 5 -56
3 -56 -5z"/>
<path d="M3324 2456 c-4 -10 -15 -11 -49 -4 -57 12 -112 -3 -153 -43 -38 -37
-46 -64 -39 -126 10 -90 73 -138 171 -129 57 6 91 20 81 36 -2 4 -23 4 -45 0
-80 -15 -115 7 -128 81 -17 90 23 159 92 159 38 0 56 -15 56 -46 0 -20 16 -42
24 -33 10 12 15 119 6 119 -6 0 -13 -6 -16 -14z"/>
<path d="M3410 2421 c0 -5 9 -13 20 -16 24 -8 24 -5 5 -135 -17 -114 -20 -120
-41 -120 -8 0 -14 -4 -14 -9 0 -9 57 -21 102 -21 15 0 33 -7 42 -15 18 -19 36
-19 36 -1 0 7 3 28 6 45 5 24 3 31 -10 31 -9 0 -16 -7 -16 -15 0 -10 -11 -15
-35 -15 -33 0 -34 1 -29 33 3 17 8 38 10 45 6 19 29 9 29 -13 0 -10 5 -20 12
-22 7 -3 14 16 18 47 7 54 0 76 -16 47 -6 -9 -14 -17 -19 -17 -11 0 -13 62 -4
98 6 21 10 22 58 16 60 -8 78 -19 74 -47 -2 -11 3 -22 10 -24 7 -3 12 5 12 20
0 13 3 38 6 54 l6 29 -64 -1 c-34 0 -93 4 -130 8 -45 6 -68 5 -68 -2z"/>
<path d="M1420 2084 c0 -4 7 -16 16 -26 16 -17 16 -25 0 -125 -24 -148 -25
-150 -49 -157 -19 -5 -20 -8 -6 -16 20 -12 119 -25 119 -15 0 4 -6 13 -14 19
-22 17 -1 149 23 142 9 -2 40 -8 69 -11 l54 -7 -6 -47 c-13 -95 -16 -101 -42
-101 -27 0 -32 -15 -9 -24 8 -3 63 -10 121 -16 59 -6 111 -12 117 -13 20 -4
18 25 -2 30 -25 6 -26 14 -5 55 14 26 19 29 46 24 17 -3 39 -6 49 -6 13 0 21
-12 29 -40 12 -43 7 -60 -16 -60 -17 0 -19 -19 -1 -25 6 -2 36 -6 65 -10 54
-6 69 6 36 30 -12 8 -20 43 -30 121 -8 60 -16 122 -19 138 -4 26 -3 28 19 22
16 -4 26 -1 30 9 6 16 1 18 -102 35 -34 6 -67 8 -72 5 -15 -9 -2 -25 21 -25
10 0 19 -2 19 -5 0 -3 -30 -61 -67 -128 -37 -67 -67 -123 -67 -123 -1 -1 -15
-5 -31 -8 -19 -4 -37 -2 -47 6 -16 12 -16 21 -3 113 25 168 24 165 45 165 25
0 26 27 3 34 -10 2 -37 8 -60 11 -35 5 -43 4 -43 -8 0 -9 10 -19 21 -22 19 -6
20 -12 15 -48 -4 -23 -9 -43 -11 -45 -5 -6 -110 9 -124 17 -8 5 -10 21 -5 49
6 36 10 42 30 42 30 0 31 18 2 29 -34 13 -118 23 -118 15z"/>
<path d="M2110 1967 c0 -9 9 -19 20 -22 12 -4 20 -15 20 -28 0 -31 -36 -236
-42 -243 -3 -3 -18 -6 -32 -7 -15 -1 -26 -7 -26 -12 0 -12 24 -19 118 -35 l72
-12 0 -34 c0 -41 17 -45 25 -6 3 15 12 49 20 77 16 56 4 86 -16 41 -12 -27
-47 -43 -72 -33 -12 4 -10 27 7 129 12 67 24 128 29 135 4 6 16 9 27 6 13 -4
20 0 20 10 0 11 -18 18 -62 26 -35 6 -73 14 -85 17 -17 5 -23 2 -23 -9z"/>
<path d="M2375 1920 c-3 -6 5 -14 19 -20 14 -5 26 -12 26 -16 0 -17 -42 -249
-46 -256 -3 -4 -18 -8 -35 -8 -16 0 -29 -4 -29 -10 0 -11 18 -16 120 -33 l75
-12 -3 -33 c-3 -50 25 -42 33 9 4 23 13 56 21 74 13 31 10 45 -8 45 -5 0 -13
-11 -18 -25 -10 -26 -55 -44 -71 -28 -6 6 -2 57 12 141 l22 132 29 0 c55 0 23
24 -48 36 -88 16 -92 16 -99 4z"/>
<path d="M2705 1847 c-43 -20 -93 -80 -101 -122 -16 -84 13 -152 76 -179 88
-38 171 -32 226 16 99 87 97 212 -4 271 -43 25 -155 33 -197 14z m135 -43 c82
-33 107 -118 57 -193 -20 -30 -36 -42 -62 -47 -50 -9 -121 13 -161 51 -28 27
-34 40 -34 74 0 108 89 159 200 115z"/>
<path d="M3020 1805 c0 -8 6 -15 13 -15 28 -1 37 -23 72 -180 20 -91 40 -169
44 -173 16 -16 29 1 87 113 31 61 60 110 63 110 3 0 24 -60 46 -133 28 -92 44
-132 55 -132 8 0 60 65 116 145 69 98 109 146 123 148 21 3 28 17 13 26 -18
11 -112 18 -112 8 0 -5 10 -12 21 -15 l21 -6 -23 -33 c-58 -81 -131 -183 -134
-187 -2 -1 -20 50 -40 114 -35 112 -37 130 -12 130 7 0 13 7 15 17 4 18 -10
24 -85 33 -45 6 -53 4 -53 -9 0 -9 6 -16 14 -16 29 0 26 -21 -14 -99 -67 -129
-65 -128 -84 -20 -10 52 -20 104 -23 117 -4 18 -1 22 17 22 39 0 15 24 -31 32
-24 4 -59 10 -76 13 -26 5 -33 2 -33 -10z"/>
<path d="M3720 1661 c-22 -22 -30 -39 -30 -66 0 -38 17 -59 80 -99 43 -26 51
-65 21 -95 -42 -42 -96 -16 -110 51 -9 41 -24 39 -32 -4 -3 -18 -9 -44 -13
-57 -7 -21 -6 -23 15 -18 13 3 29 1 36 -4 23 -20 86 -29 121 -18 39 13 62 53
62 109 0 57 -13 76 -71 105 -59 31 -69 49 -41 77 17 18 26 20 54 12 26 -8 34
-16 36 -37 4 -35 18 -35 25 1 14 71 18 66 -56 70 -64 3 -69 2 -97 -27z"/>
</g>
</svg>
